<mxfile host="app.diagrams.net" modified="2024-02-19T03:41:29.201Z" agent="Mozilla/5.0 (Macintosh; Intel Mac OS X 10_15_7) AppleWebKit/537.36 (KHTML, like Gecko) Chrome/120.0.0.0 Safari/537.36" etag="id1WG5DplOGuORWkIUbb" version="22.1.18" type="github">
  <diagram name="Page-1" id="E5qr1gGOTr9OYWmSittz">
    <mxGraphModel dx="1898" dy="1262" grid="1" gridSize="10" guides="1" tooltips="1" connect="1" arrows="1" fold="1" page="1" pageScale="1" pageWidth="827" pageHeight="1169" math="0" shadow="0">
      <root>
        <mxCell id="0" />
        <mxCell id="1" parent="0" />
        <mxCell id="goKujTiJFL-AGjSq7kiR-32" style="edgeStyle=orthogonalEdgeStyle;rounded=0;sketch=1;hachureGap=4;jiggle=2;curveFitting=1;orthogonalLoop=1;jettySize=auto;html=1;exitX=1;exitY=0.5;exitDx=0;exitDy=0;entryX=0;entryY=0.5;entryDx=0;entryDy=0;fontFamily=Architects Daughter;fontSource=https%3A%2F%2Ffonts.googleapis.com%2Fcss%3Ffamily%3DArchitects%2BDaughter;fontSize=16;strokeColor=#3399FF;" edge="1" parent="1" source="goKujTiJFL-AGjSq7kiR-29" target="goKujTiJFL-AGjSq7kiR-31">
          <mxGeometry relative="1" as="geometry" />
        </mxCell>
        <mxCell id="goKujTiJFL-AGjSq7kiR-29" value="" style="rounded=1;whiteSpace=wrap;html=1;sketch=1;hachureGap=4;jiggle=2;curveFitting=1;fontFamily=Architects Daughter;fontSource=https%3A%2F%2Ffonts.googleapis.com%2Fcss%3Ffamily%3DArchitects%2BDaughter;fontSize=20;dashed=1;strokeColor=#3399FF;" vertex="1" parent="1">
          <mxGeometry x="270" y="430" width="350" height="50" as="geometry" />
        </mxCell>
        <mxCell id="goKujTiJFL-AGjSq7kiR-33" style="edgeStyle=orthogonalEdgeStyle;rounded=0;sketch=1;hachureGap=4;jiggle=2;curveFitting=1;orthogonalLoop=1;jettySize=auto;html=1;exitX=1;exitY=0.5;exitDx=0;exitDy=0;fontFamily=Architects Daughter;fontSource=https%3A%2F%2Ffonts.googleapis.com%2Fcss%3Ffamily%3DArchitects%2BDaughter;fontSize=16;strokeColor=#3399FF;" edge="1" parent="1" source="goKujTiJFL-AGjSq7kiR-28" target="goKujTiJFL-AGjSq7kiR-30">
          <mxGeometry relative="1" as="geometry" />
        </mxCell>
        <mxCell id="goKujTiJFL-AGjSq7kiR-28" value="" style="rounded=1;whiteSpace=wrap;html=1;sketch=1;hachureGap=4;jiggle=2;curveFitting=1;fontFamily=Architects Daughter;fontSource=https%3A%2F%2Ffonts.googleapis.com%2Fcss%3Ffamily%3DArchitects%2BDaughter;fontSize=20;dashed=1;strokeColor=#3399FF;" vertex="1" parent="1">
          <mxGeometry x="460" y="213" width="540" height="90" as="geometry" />
        </mxCell>
        <mxCell id="goKujTiJFL-AGjSq7kiR-23" style="edgeStyle=orthogonalEdgeStyle;rounded=0;sketch=1;hachureGap=4;jiggle=2;curveFitting=1;orthogonalLoop=1;jettySize=auto;html=1;exitX=0.5;exitY=1;exitDx=0;exitDy=0;entryX=0.5;entryY=0;entryDx=0;entryDy=0;fontFamily=Architects Daughter;fontSource=https%3A%2F%2Ffonts.googleapis.com%2Fcss%3Ffamily%3DArchitects%2BDaughter;fontSize=16;" edge="1" parent="1" source="goKujTiJFL-AGjSq7kiR-2" target="goKujTiJFL-AGjSq7kiR-22">
          <mxGeometry relative="1" as="geometry" />
        </mxCell>
        <mxCell id="goKujTiJFL-AGjSq7kiR-24" value="&lt;font face=&quot;Comic Sans MS&quot; style=&quot;font-size: 16px;&quot;&gt;只需要替换组件库版本，无需修改 API 使用&lt;/font&gt;" style="edgeLabel;html=1;align=center;verticalAlign=middle;resizable=0;points=[];fontSize=20;fontFamily=Architects Daughter;" vertex="1" connectable="0" parent="goKujTiJFL-AGjSq7kiR-23">
          <mxGeometry x="-0.0125" y="1" relative="1" as="geometry">
            <mxPoint as="offset" />
          </mxGeometry>
        </mxCell>
        <mxCell id="goKujTiJFL-AGjSq7kiR-2" value="&lt;br&gt;" style="rounded=0;whiteSpace=wrap;html=1;sketch=1;hachureGap=4;jiggle=2;curveFitting=1;fontFamily=Comic Sans MS;fontSize=20;fillColor=#d5e8d4;strokeColor=#82b366;" vertex="1" parent="1">
          <mxGeometry x="300" y="315" width="270" height="100" as="geometry" />
        </mxCell>
        <mxCell id="goKujTiJFL-AGjSq7kiR-5" value="&lt;br&gt;" style="rounded=0;whiteSpace=wrap;html=1;sketch=1;hachureGap=4;jiggle=2;curveFitting=1;fontFamily=Comic Sans MS;fontSize=20;fillColor=#bac8d3;strokeColor=#23445d;" vertex="1" parent="1">
          <mxGeometry x="300" y="100" width="270" height="100" as="geometry" />
        </mxCell>
        <mxCell id="goKujTiJFL-AGjSq7kiR-8" style="edgeStyle=orthogonalEdgeStyle;rounded=0;sketch=1;hachureGap=4;jiggle=2;curveFitting=1;orthogonalLoop=1;jettySize=auto;html=1;exitX=0.5;exitY=1;exitDx=0;exitDy=0;entryX=0.5;entryY=0;entryDx=0;entryDy=0;fontFamily=Architects Daughter;fontSource=https%3A%2F%2Ffonts.googleapis.com%2Fcss%3Ffamily%3DArchitects%2BDaughter;fontSize=16;" edge="1" parent="1" source="goKujTiJFL-AGjSq7kiR-6" target="goKujTiJFL-AGjSq7kiR-7">
          <mxGeometry relative="1" as="geometry" />
        </mxCell>
        <mxCell id="goKujTiJFL-AGjSq7kiR-9" value="&lt;font face=&quot;Comic Sans MS&quot;&gt;复用&lt;/font&gt;" style="edgeLabel;html=1;align=center;verticalAlign=middle;resizable=0;points=[];fontSize=20;fontFamily=Architects Daughter;" vertex="1" connectable="0" parent="goKujTiJFL-AGjSq7kiR-8">
          <mxGeometry y="-2" relative="1" as="geometry">
            <mxPoint as="offset" />
          </mxGeometry>
        </mxCell>
        <mxCell id="goKujTiJFL-AGjSq7kiR-6" value="&lt;font face=&quot;Comic Sans MS&quot;&gt;功能(API)&lt;/font&gt;" style="rounded=1;whiteSpace=wrap;html=1;sketch=1;hachureGap=4;jiggle=2;curveFitting=1;fontFamily=Architects Daughter;fontSource=https%3A%2F%2Ffonts.googleapis.com%2Fcss%3Ffamily%3DArchitects%2BDaughter;fontSize=20;fillColor=#d5e8d4;strokeColor=#82b366;gradientColor=#97d077;" vertex="1" parent="1">
          <mxGeometry x="310" y="120" width="120" height="60" as="geometry" />
        </mxCell>
        <mxCell id="goKujTiJFL-AGjSq7kiR-7" value="&lt;font face=&quot;Comic Sans MS&quot;&gt;功能(API)&lt;/font&gt;" style="rounded=1;whiteSpace=wrap;html=1;sketch=1;hachureGap=4;jiggle=2;curveFitting=1;fontFamily=Architects Daughter;fontSource=https%3A%2F%2Ffonts.googleapis.com%2Fcss%3Ffamily%3DArchitects%2BDaughter;fontSize=20;fillColor=#d5e8d4;strokeColor=#82b366;gradientColor=#97d077;" vertex="1" parent="1">
          <mxGeometry x="310" y="335" width="120" height="60" as="geometry" />
        </mxCell>
        <mxCell id="goKujTiJFL-AGjSq7kiR-12" style="edgeStyle=orthogonalEdgeStyle;rounded=0;sketch=1;hachureGap=4;jiggle=2;curveFitting=1;orthogonalLoop=1;jettySize=auto;html=1;exitX=0.5;exitY=1;exitDx=0;exitDy=0;fontFamily=Architects Daughter;fontSource=https%3A%2F%2Ffonts.googleapis.com%2Fcss%3Ffamily%3DArchitects%2BDaughter;fontSize=16;" edge="1" parent="1" source="goKujTiJFL-AGjSq7kiR-10" target="goKujTiJFL-AGjSq7kiR-11">
          <mxGeometry relative="1" as="geometry" />
        </mxCell>
        <mxCell id="goKujTiJFL-AGjSq7kiR-10" value="&lt;font face=&quot;Comic Sans MS&quot;&gt;UI&lt;/font&gt;" style="rounded=1;whiteSpace=wrap;html=1;sketch=1;hachureGap=4;jiggle=2;curveFitting=1;fontFamily=Architects Daughter;fontSource=https%3A%2F%2Ffonts.googleapis.com%2Fcss%3Ffamily%3DArchitects%2BDaughter;fontSize=20;fillColor=#ffcd28;strokeColor=#d79b00;gradientColor=#ffa500;" vertex="1" parent="1">
          <mxGeometry x="440" y="120" width="120" height="60" as="geometry" />
        </mxCell>
        <mxCell id="goKujTiJFL-AGjSq7kiR-11" value="&lt;font face=&quot;Comic Sans MS&quot;&gt;UI&lt;/font&gt;" style="rounded=1;whiteSpace=wrap;html=1;sketch=1;hachureGap=4;jiggle=2;curveFitting=1;fontFamily=Architects Daughter;fontSource=https%3A%2F%2Ffonts.googleapis.com%2Fcss%3Ffamily%3DArchitects%2BDaughter;fontSize=20;fillColor=#f8cecc;strokeColor=#b85450;gradientColor=#ea6b66;" vertex="1" parent="1">
          <mxGeometry x="440" y="335" width="120" height="60" as="geometry" />
        </mxCell>
        <mxCell id="goKujTiJFL-AGjSq7kiR-15" style="edgeStyle=orthogonalEdgeStyle;rounded=0;sketch=1;hachureGap=4;jiggle=2;curveFitting=1;orthogonalLoop=1;jettySize=auto;html=1;exitX=0;exitY=0.5;exitDx=0;exitDy=0;entryX=1;entryY=0.5;entryDx=0;entryDy=0;fontFamily=Architects Daughter;fontSource=https%3A%2F%2Ffonts.googleapis.com%2Fcss%3Ffamily%3DArchitects%2BDaughter;fontSize=16;" edge="1" parent="1" source="goKujTiJFL-AGjSq7kiR-13" target="goKujTiJFL-AGjSq7kiR-14">
          <mxGeometry relative="1" as="geometry" />
        </mxCell>
        <mxCell id="goKujTiJFL-AGjSq7kiR-16" value="&lt;font style=&quot;font-size: 16px;&quot; face=&quot;Comic Sans MS&quot;&gt;提取&lt;/font&gt;" style="edgeLabel;html=1;align=center;verticalAlign=middle;resizable=0;points=[];fontSize=20;fontFamily=Architects Daughter;" vertex="1" connectable="0" parent="goKujTiJFL-AGjSq7kiR-15">
          <mxGeometry x="-0.0115" y="-1" relative="1" as="geometry">
            <mxPoint as="offset" />
          </mxGeometry>
        </mxCell>
        <mxCell id="goKujTiJFL-AGjSq7kiR-13" value="&lt;font face=&quot;Comic Sans MS&quot; style=&quot;font-size: 18px;&quot;&gt;UI 设计规范&lt;/font&gt;" style="ellipse;whiteSpace=wrap;html=1;sketch=1;hachureGap=4;jiggle=2;curveFitting=1;fontFamily=Architects Daughter;fontSource=https%3A%2F%2Ffonts.googleapis.com%2Fcss%3Ffamily%3DArchitects%2BDaughter;fontSize=18;" vertex="1" parent="1">
          <mxGeometry x="827" y="220" width="120" height="80" as="geometry" />
        </mxCell>
        <mxCell id="goKujTiJFL-AGjSq7kiR-17" style="edgeStyle=orthogonalEdgeStyle;rounded=0;sketch=1;hachureGap=4;jiggle=2;curveFitting=1;orthogonalLoop=1;jettySize=auto;html=1;exitX=0;exitY=0.5;exitDx=0;exitDy=0;fontFamily=Architects Daughter;fontSource=https%3A%2F%2Ffonts.googleapis.com%2Fcss%3Ffamily%3DArchitects%2BDaughter;fontSize=16;" edge="1" parent="1" source="goKujTiJFL-AGjSq7kiR-14">
          <mxGeometry relative="1" as="geometry">
            <mxPoint x="500" y="260" as="targetPoint" />
          </mxGeometry>
        </mxCell>
        <mxCell id="goKujTiJFL-AGjSq7kiR-18" value="&lt;font face=&quot;Comic Sans MS&quot; style=&quot;font-size: 16px;&quot;&gt;升级替换&lt;/font&gt;" style="edgeLabel;html=1;align=center;verticalAlign=middle;resizable=0;points=[];fontSize=20;fontFamily=Architects Daughter;" vertex="1" connectable="0" parent="goKujTiJFL-AGjSq7kiR-17">
          <mxGeometry x="-0.0192" y="1" relative="1" as="geometry">
            <mxPoint y="-1" as="offset" />
          </mxGeometry>
        </mxCell>
        <mxCell id="goKujTiJFL-AGjSq7kiR-14" value="&lt;font face=&quot;Comic Sans MS&quot; style=&quot;font-size: 18px;&quot;&gt;设计 token&lt;/font&gt;" style="rounded=1;whiteSpace=wrap;html=1;sketch=1;hachureGap=4;jiggle=2;curveFitting=1;fontFamily=Architects Daughter;fontSource=https%3A%2F%2Ffonts.googleapis.com%2Fcss%3Ffamily%3DArchitects%2BDaughter;fontSize=18;" vertex="1" parent="1">
          <mxGeometry x="630" y="235" width="110" height="50" as="geometry" />
        </mxCell>
        <mxCell id="goKujTiJFL-AGjSq7kiR-20" value="&lt;font face=&quot;Comic Sans MS&quot;&gt;社区组件库&lt;br&gt;(element-plus)&lt;/font&gt;" style="text;html=1;strokeColor=none;fillColor=none;align=center;verticalAlign=middle;whiteSpace=wrap;rounded=0;fontSize=20;fontFamily=Architects Daughter;" vertex="1" parent="1">
          <mxGeometry x="150" y="135" width="140" height="30" as="geometry" />
        </mxCell>
        <mxCell id="goKujTiJFL-AGjSq7kiR-21" value="&lt;font face=&quot;Comic Sans MS&quot;&gt;自建组件库&lt;/font&gt;" style="text;html=1;strokeColor=none;fillColor=none;align=center;verticalAlign=middle;whiteSpace=wrap;rounded=0;fontSize=20;fontFamily=Architects Daughter;" vertex="1" parent="1">
          <mxGeometry x="150" y="350" width="140" height="30" as="geometry" />
        </mxCell>
        <mxCell id="goKujTiJFL-AGjSq7kiR-22" value="项目" style="rounded=0;whiteSpace=wrap;html=1;sketch=1;hachureGap=4;jiggle=2;curveFitting=1;fontFamily=Architects Daughter;fontSource=https%3A%2F%2Ffonts.googleapis.com%2Fcss%3Ffamily%3DArchitects%2BDaughter;fontSize=20;fillColor=#ffcccc;strokeColor=#36393d;" vertex="1" parent="1">
          <mxGeometry x="300" y="495" width="270" height="90" as="geometry" />
        </mxCell>
        <mxCell id="goKujTiJFL-AGjSq7kiR-30" value="&lt;font color=&quot;#3399ff&quot; style=&quot;font-size: 30px;&quot;&gt;组件库&lt;br&gt;建设成本&lt;/font&gt;" style="text;html=1;strokeColor=none;fillColor=none;align=center;verticalAlign=middle;whiteSpace=wrap;rounded=0;fontSize=20;fontFamily=Architects Daughter;" vertex="1" parent="1">
          <mxGeometry x="1070" y="221.5" width="200" height="73" as="geometry" />
        </mxCell>
        <mxCell id="goKujTiJFL-AGjSq7kiR-31" value="&lt;font color=&quot;#3399ff&quot;&gt;&lt;span style=&quot;font-size: 30px;&quot;&gt;项目组件库&lt;br&gt;升级成本&lt;/span&gt;&lt;/font&gt;" style="text;html=1;strokeColor=none;fillColor=none;align=center;verticalAlign=middle;whiteSpace=wrap;rounded=0;fontSize=20;fontFamily=Architects Daughter;" vertex="1" parent="1">
          <mxGeometry x="1070" y="418.5" width="200" height="73" as="geometry" />
        </mxCell>
      </root>
    </mxGraphModel>
  </diagram>
</mxfile>
